<svg id="visual" viewBox="0 0 1920 1080" width="1920" height="1080" xmlns="http://www.w3.org/2000/svg" xmlns:xlink="http://www.w3.org/1999/xlink" version="1.1"><path d="M0 205L45.7 222.8C91.3 240.7 182.7 276.3 274.2 287.5C365.7 298.7 457.3 285.3 548.8 271.7C640.3 258 731.7 244 823 230.7C914.3 217.3 1005.7 204.7 1097 228.3C1188.3 252 1279.7 312 1371.2 326C1462.7 340 1554.3 308 1645.8 278.8C1737.3 249.7 1828.7 223.3 1874.3 210.2L1920 197L1920 0L1874.3 0C1828.7 0 1737.3 0 1645.8 0C1554.3 0 1462.7 0 1371.2 0C1279.7 0 1188.3 0 1097 0C1005.7 0 914.3 0 823 0C731.7 0 640.3 0 548.8 0C457.3 0 365.7 0 274.2 0C182.7 0 91.3 0 45.7 0L0 0Z" fill="#7d4698"></path><path d="M0 157L45.7 156C91.3 155 182.7 153 274.2 174C365.7 195 457.3 239 548.8 262.8C640.3 286.7 731.7 290.3 823 293.2C914.3 296 1005.7 298 1097 273.8C1188.3 249.7 1279.7 199.3 1371.2 199.2C1462.7 199 1554.3 249 1645.8 262C1737.3 275 1828.7 251 1874.3 239L1920 227L1920 0L1874.3 0C1828.7 0 1737.3 0 1645.8 0C1554.3 0 1462.7 0 1371.2 0C1279.7 0 1188.3 0 1097 0C1005.7 0 914.3 0 823 0C731.7 0 640.3 0 548.8 0C457.3 0 365.7 0 274.2 0C182.7 0 91.3 0 45.7 0L0 0Z" fill="#74408c"></path><path d="M0 177L45.7 179.2C91.3 181.3 182.7 185.7 274.2 178.8C365.7 172 457.3 154 548.8 156.7C640.3 159.3 731.7 182.7 823 178.5C914.3 174.3 1005.7 142.7 1097 146.2C1188.3 149.7 1279.7 188.3 1371.2 198.7C1462.7 209 1554.3 191 1645.8 187.8C1737.3 184.7 1828.7 196.3 1874.3 202.2L1920 208L1920 0L1874.3 0C1828.7 0 1737.3 0 1645.8 0C1554.3 0 1462.7 0 1371.2 0C1279.7 0 1188.3 0 1097 0C1005.7 0 914.3 0 823 0C731.7 0 640.3 0 548.8 0C457.3 0 365.7 0 274.2 0C182.7 0 91.3 0 45.7 0L0 0Z" fill="#6b3b81"></path><path d="M0 71L45.7 90.5C91.3 110 182.7 149 274.2 149.7C365.7 150.3 457.3 112.7 548.8 103.3C640.3 94 731.7 113 823 119.5C914.3 126 1005.7 120 1097 113.3C1188.3 106.7 1279.7 99.3 1371.2 95.3C1462.7 91.3 1554.3 90.7 1645.8 94.2C1737.3 97.7 1828.7 105.3 1874.3 109.2L1920 113L1920 0L1874.3 0C1828.7 0 1737.3 0 1645.8 0C1554.3 0 1462.7 0 1371.2 0C1279.7 0 1188.3 0 1097 0C1005.7 0 914.3 0 823 0C731.7 0 640.3 0 548.8 0C457.3 0 365.7 0 274.2 0C182.7 0 91.3 0 45.7 0L0 0Z" fill="#623676"></path><path d="M0 95L45.7 98.8C91.3 102.7 182.7 110.3 274.2 102C365.7 93.7 457.3 69.3 548.8 55.5C640.3 41.7 731.7 38.3 823 36.2C914.3 34 1005.7 33 1097 42.8C1188.3 52.7 1279.7 73.3 1371.2 72.3C1462.7 71.3 1554.3 48.7 1645.8 36.7C1737.3 24.7 1828.7 23.3 1874.3 22.7L1920 22L1920 0L1874.3 0C1828.7 0 1737.3 0 1645.8 0C1554.3 0 1462.7 0 1371.2 0C1279.7 0 1188.3 0 1097 0C1005.7 0 914.3 0 823 0C731.7 0 640.3 0 548.8 0C457.3 0 365.7 0 274.2 0C182.7 0 91.3 0 45.7 0L0 0Z" fill="#59316b"></path></svg>