<svg id="visual" viewBox="0 0 540 960" width="540" height="960" xmlns="http://www.w3.org/2000/svg" xmlns:xlink="http://www.w3.org/1999/xlink" version="1.1"><path d="M0 212L12.8 215.2C25.7 218.3 51.3 224.7 77 238.7C102.7 252.7 128.3 274.3 154 272.8C179.7 271.3 205.3 246.7 231.2 234.3C257 222 283 222 308.8 224C334.7 226 360.3 230 386 240.3C411.7 250.7 437.3 267.3 463 272.8C488.7 278.3 514.3 272.7 527.2 269.8L540 267L540 0L527.2 0C514.3 0 488.7 0 463 0C437.3 0 411.7 0 386 0C360.3 0 334.7 0 308.8 0C283 0 257 0 231.2 0C205.3 0 179.7 0 154 0C128.3 0 102.7 0 77 0C51.3 0 25.7 0 12.8 0L0 0Z" fill="#7d4698"></path><path d="M0 211L12.8 211.5C25.7 212 51.3 213 77 207.8C102.7 202.7 128.3 191.3 154 197C179.7 202.7 205.3 225.3 231.2 237C257 248.7 283 249.3 308.8 240.3C334.7 231.3 360.3 212.7 386 212.7C411.7 212.7 437.3 231.3 463 240.2C488.7 249 514.3 248 527.2 247.5L540 247L540 0L527.2 0C514.3 0 488.7 0 463 0C437.3 0 411.7 0 386 0C360.3 0 334.7 0 308.8 0C283 0 257 0 231.2 0C205.3 0 179.7 0 154 0C128.3 0 102.7 0 77 0C51.3 0 25.7 0 12.8 0L0 0Z" fill="#74408c"></path><path d="M0 173L12.8 168C25.7 163 51.3 153 77 147.5C102.7 142 128.3 141 154 141.3C179.7 141.7 205.3 143.3 231.2 147C257 150.7 283 156.3 308.8 162.8C334.7 169.3 360.3 176.7 386 177C411.7 177.3 437.3 170.7 463 169.8C488.7 169 514.3 174 527.2 176.5L540 179L540 0L527.2 0C514.3 0 488.7 0 463 0C437.3 0 411.7 0 386 0C360.3 0 334.7 0 308.8 0C283 0 257 0 231.2 0C205.3 0 179.7 0 154 0C128.3 0 102.7 0 77 0C51.3 0 25.7 0 12.8 0L0 0Z" fill="#6b3b81"></path><path d="M0 95L12.8 100.3C25.7 105.7 51.3 116.3 77 119.7C102.7 123 128.3 119 154 120.2C179.7 121.3 205.3 127.7 231.2 122.2C257 116.7 283 99.3 308.8 92.2C334.7 85 360.3 88 386 97.3C411.7 106.7 437.3 122.3 463 126C488.7 129.7 514.3 121.3 527.2 117.2L540 113L540 0L527.2 0C514.3 0 488.7 0 463 0C437.3 0 411.7 0 386 0C360.3 0 334.7 0 308.8 0C283 0 257 0 231.2 0C205.3 0 179.7 0 154 0C128.3 0 102.7 0 77 0C51.3 0 25.7 0 12.8 0L0 0Z" fill="#623676"></path><path d="M0 40L12.8 41.7C25.7 43.3 51.3 46.7 77 51.7C102.7 56.7 128.3 63.3 154 67C179.7 70.7 205.3 71.3 231.2 71.8C257 72.3 283 72.7 308.8 75C334.7 77.3 360.3 81.7 386 77.8C411.7 74 437.3 62 463 60.3C488.7 58.7 514.3 67.3 527.2 71.7L540 76L540 0L527.2 0C514.3 0 488.7 0 463 0C437.3 0 411.7 0 386 0C360.3 0 334.7 0 308.8 0C283 0 257 0 231.2 0C205.3 0 179.7 0 154 0C128.3 0 102.7 0 77 0C51.3 0 25.7 0 12.8 0L0 0Z" fill="#59316b"></path></svg>