<svg id="visual" xmlns="http://www.w3.org/2000/svg" xmlns:xlink="http://www.w3.org/1999/xlink" version="1.1" viewBox="0 671.1 1920 409.9"><path d="M0 802L45.7 795.2C91.3 788.3 182.7 774.7 274.2 752C365.7 729.3 457.3 697.7 548.8 695.8C640.3 694 731.7 722 823 741.5C914.3 761 1005.7 772 1097 766.7C1188.3 761.3 1279.7 739.7 1371.2 714.8C1462.7 690 1554.3 662 1645.8 674C1737.3 686 1828.7 738 1874.3 764L1920 790L1920 1081L1874.3 1081C1828.7 1081 1737.3 1081 1645.8 1081C1554.3 1081 1462.7 1081 1371.2 1081C1279.7 1081 1188.3 1081 1097 1081C1005.7 1081 914.3 1081 823 1081C731.7 1081 640.3 1081 548.8 1081C457.3 1081 365.7 1081 274.2 1081C182.7 1081 91.3 1081 45.7 1081L0 1081Z" fill="#7d4698"></path><path d="M0 735L45.7 740.3C91.3 745.7 182.7 756.3 274.2 769.3C365.7 782.3 457.3 797.7 548.8 791.7C640.3 785.7 731.7 758.3 823 748C914.3 737.7 1005.7 744.3 1097 764.7C1188.3 785 1279.7 819 1371.2 824.8C1462.7 830.7 1554.3 808.3 1645.8 806.3C1737.3 804.3 1828.7 822.7 1874.3 831.8L1920 841L1920 1081L1874.3 1081C1828.7 1081 1737.3 1081 1645.8 1081C1554.3 1081 1462.7 1081 1371.2 1081C1279.7 1081 1188.3 1081 1097 1081C1005.7 1081 914.3 1081 823 1081C731.7 1081 640.3 1081 548.8 1081C457.3 1081 365.7 1081 274.2 1081C182.7 1081 91.3 1081 45.7 1081L0 1081Z" fill="#74408c"></path><path d="M0 812L45.7 820.2C91.3 828.3 182.7 844.7 274.2 859.5C365.7 874.3 457.3 887.7 548.8 881.2C640.3 874.7 731.7 848.3 823 839.3C914.3 830.3 1005.7 838.7 1097 836.8C1188.3 835 1279.7 823 1371.2 819.8C1462.7 816.7 1554.3 822.3 1645.8 825.2C1737.3 828 1828.7 828 1874.3 828L1920 828L1920 1081L1874.3 1081C1828.7 1081 1737.3 1081 1645.8 1081C1554.3 1081 1462.7 1081 1371.2 1081C1279.7 1081 1188.3 1081 1097 1081C1005.7 1081 914.3 1081 823 1081C731.7 1081 640.3 1081 548.8 1081C457.3 1081 365.7 1081 274.2 1081C182.7 1081 91.3 1081 45.7 1081L0 1081Z" fill="#6b3b81"></path><path d="M0 875L45.7 873.8C91.3 872.7 182.7 870.3 274.2 876.5C365.7 882.7 457.3 897.3 548.8 898.8C640.3 900.3 731.7 888.7 823 891.3C914.3 894 1005.7 911 1097 917.2C1188.3 923.3 1279.7 918.7 1371.2 918.8C1462.7 919 1554.3 924 1645.8 921.3C1737.3 918.7 1828.7 908.3 1874.3 903.2L1920 898L1920 1081L1874.3 1081C1828.7 1081 1737.3 1081 1645.8 1081C1554.3 1081 1462.7 1081 1371.2 1081C1279.7 1081 1188.3 1081 1097 1081C1005.7 1081 914.3 1081 823 1081C731.7 1081 640.3 1081 548.8 1081C457.3 1081 365.7 1081 274.2 1081C182.7 1081 91.3 1081 45.7 1081L0 1081Z" fill="#623676"></path><path d="M0 997L45.7 990.8C91.3 984.7 182.7 972.3 274.2 970.2C365.7 968 457.3 976 548.8 986C640.3 996 731.7 1008 823 1016.2C914.3 1024.3 1005.7 1028.7 1097 1021.2C1188.3 1013.7 1279.7 994.3 1371.2 982.5C1462.7 970.7 1554.3 966.3 1645.8 973.5C1737.3 980.7 1828.7 999.3 1874.3 1008.7L1920 1018L1920 1081L1874.3 1081C1828.7 1081 1737.3 1081 1645.8 1081C1554.3 1081 1462.7 1081 1371.2 1081C1279.7 1081 1188.3 1081 1097 1081C1005.7 1081 914.3 1081 823 1081C731.7 1081 640.3 1081 548.8 1081C457.3 1081 365.7 1081 274.2 1081C182.7 1081 91.3 1081 45.7 1081L0 1081Z" fill="#59316b"></path></svg>