<svg id="visual" viewBox="0 0 1080 1920" width="1080" height="1920" xmlns="http://www.w3.org/2000/svg" xmlns:xlink="http://www.w3.org/1999/xlink" version="1.1"><path d="M0 1121L36 1154C72 1187 144 1253 216 1255.7C288 1258.3 360 1197.7 432 1193.2C504 1188.7 576 1240.3 648 1252C720 1263.7 792 1235.3 864 1203.5C936 1171.7 1008 1136.3 1044 1118.7L1080 1101L1080 1921L1044 1921C1008 1921 936 1921 864 1921C792 1921 720 1921 648 1921C576 1921 504 1921 432 1921C360 1921 288 1921 216 1921C144 1921 72 1921 36 1921L0 1921Z" fill="#7d4698"></path><path d="M0 1201L36 1250.5C72 1300 144 1399 216 1440.3C288 1481.7 360 1465.3 432 1421.8C504 1378.3 576 1307.7 648 1295.8C720 1284 792 1331 864 1338.3C936 1345.7 1008 1313.3 1044 1297.2L1080 1281L1080 1921L1044 1921C1008 1921 936 1921 864 1921C792 1921 720 1921 648 1921C576 1921 504 1921 432 1921C360 1921 288 1921 216 1921C144 1921 72 1921 36 1921L0 1921Z" fill="#74408c"></path><path d="M0 1416L36 1423.2C72 1430.3 144 1444.7 216 1436C288 1427.3 360 1395.7 432 1400.3C504 1405 576 1446 648 1475.3C720 1504.7 792 1522.3 864 1536.7C936 1551 1008 1562 1044 1567.5L1080 1573L1080 1921L1044 1921C1008 1921 936 1921 864 1921C792 1921 720 1921 648 1921C576 1921 504 1921 432 1921C360 1921 288 1921 216 1921C144 1921 72 1921 36 1921L0 1921Z" fill="#6b3b81"></path><path d="M0 1639L36 1635.2C72 1631.3 144 1623.7 216 1603C288 1582.3 360 1548.7 432 1537.3C504 1526 576 1537 648 1536.5C720 1536 792 1524 864 1525.7C936 1527.3 1008 1542.7 1044 1550.3L1080 1558L1080 1921L1044 1921C1008 1921 936 1921 864 1921C792 1921 720 1921 648 1921C576 1921 504 1921 432 1921C360 1921 288 1921 216 1921C144 1921 72 1921 36 1921L0 1921Z" fill="#623676"></path><path d="M0 1712L36 1720.2C72 1728.3 144 1744.7 216 1747C288 1749.3 360 1737.7 432 1728.8C504 1720 576 1714 648 1711.2C720 1708.3 792 1708.7 864 1715.3C936 1722 1008 1735 1044 1741.5L1080 1748L1080 1921L1044 1921C1008 1921 936 1921 864 1921C792 1921 720 1921 648 1921C576 1921 504 1921 432 1921C360 1921 288 1921 216 1921C144 1921 72 1921 36 1921L0 1921Z" fill="#59316b"></path></svg>